<?xml version="1.0" encoding="iso-8859-1"?>
<!-- Generator: Adobe Illustrator 19.0.0, SVG Export Plug-In . SVG Version: 6.00 Build 0)  -->
<svg version="1.1" id="Capa_1" xmlns="http://www.w3.org/2000/svg" xmlns:xlink="http://www.w3.org/1999/xlink" x="0px" y="0px"
	 viewBox="0 0 384 384" style="enable-background:new 0 0 384 384;" xml:space="preserve">
    <rect x="24.16" y="94.32" style="fill:#3A556A;" width="300.76" height="157.884"/>
    <path style="fill:#EBF0F3;" d="M336.418,0H12.673C5.673,0,0,5.686,0,12.699v81.988c0,7.014,5.673,12.699,12.673,12.699h323.745
        c6.998,0,12.673-5.686,12.673-12.699V12.699C349.091,5.686,343.416,0,336.418,0z"/>
    <rect x="172.24" y="19.08" style="fill:#27A2DB;" width="157.808" height="69.224"/>
    <rect x="172.24" y="75.608" style="fill:#2D93BA;" width="157.808" height="12.692"/>
    <ellipse style="fill:#44C4A1;" cx="47.232" cy="53.692" rx="17.96" ry="18"/>
    <ellipse style="fill:#FCD462;" cx="110.416" cy="53.692" rx="17.96" ry="18"/>
    <path style="fill:#EBF0F3;" d="M336.418,120.853H12.673c-7,0-12.673,5.684-12.673,12.699v81.987c0,7.013,5.673,12.699,12.673,12.699
        h323.745c6.998,0,12.673-5.686,12.673-12.699v-81.987C349.091,126.538,343.416,120.853,336.418,120.853z"/>
    <rect x="172.24" y="139.932" style="fill:#27A2DB;" width="157.808" height="69.22"/>
    <rect x="172.24" y="196.48" style="fill:#2D93BA;" width="157.808" height="12.692"/>
    <ellipse style="fill:#44C4A1;" cx="47.232" cy="174.56" rx="17.96" ry="18"/>
    <ellipse style="fill:#FCD462;" cx="110.416" cy="174.56" rx="17.96" ry="18"/>
    <path style="fill:#EBF0F3;" d="M336.418,241.705H12.673c-7,0-12.673,5.686-12.673,12.7v81.987c0,7.014,5.673,12.698,12.673,12.698
        h323.745c6.998,0,12.673-5.684,12.673-12.698v-81.987C349.091,247.391,343.416,241.705,336.418,241.705z"/>
    <rect x="172.24" y="260.8" style="fill:#27A2DB;" width="157.808" height="69.22"/>
    <rect x="172.24" y="317.32" style="fill:#2D93BA;" width="157.808" height="12.692"/>
    <ellipse style="fill:#44C4A1;" cx="47.232" cy="295.4" rx="17.96" ry="18"/>
    <ellipse style="fill:#FCD462;" cx="110.416" cy="295.4" rx="17.96" ry="18"/>
    <path style="fill:#64798A;" d="M383.908,236.293c-51.611-6.914-76.244-37.084-76.244-37.084s-24.632,30.17-76.244,37.084
        c0,0-5.866,115.022,76.244,147.706C389.774,351.316,383.908,236.293,383.908,236.293z"/>
    <path style="fill:#EBF0F3;" d="M363.105,293.659c4.82-18.188,6.351-35.106,6.767-45.629c-30.178-6.406-50.768-19.94-62.209-29.496
        l-0.01,0.008v75.117H363.105z"/>
    <path style="fill:#E56353;" d="M307.653,218.543c-11.449,9.56-32.037,23.094-62.219,29.495c0.395,10.521,1.892,27.436,6.695,45.622
        h55.524V218.543z"/>
    <path style="fill:#EBF0F3;" d="M252.129,293.659c7.482,28.332,23.056,59.774,55.524,75.119v-75.119H252.129z"/>
    <path style="fill:#E56353;" d="M307.653,293.659v75.119l0.01,0.006c32.349-15.307,47.929-46.77,55.442-75.124H307.653z"/>
    <g>
    </g>
    <g>
    </g>
    <g>
    </g>
    <g>
    </g>
    <g>
    </g>
    <g>
    </g>
    <g>
    </g>
    <g>
    </g>
    <g>
    </g>
    <g>
    </g>
    <g>
    </g>
    <g>
    </g>
    <g>
    </g>
    <g>
    </g>
    <g>
    </g>
</svg>
